<svg width="400" height="400" xmlns="http://www.w3.org/2000/svg" display="block"><g fill-rule="evenodd"><path d="M175.6.4c0 .24-1.87.4-4.8.4-3.92 0-4.87.1-5.06.6-.17.47-.96.6-3.53.6-2.7 0-3.4.15-4.3.8-.8.62-1.6.8-3.7.8-2.3 0-2.7.1-2.8.8-.2.7-.5.8-2.9.8-2.2 0-2.7.13-2.7.6 0 .46-.5.6-2 .6-1.7 0-2 .13-2.2.8-.2.67-.5.8-2.3.8-1.5 0-2.1.17-2.3.6-.1.4-.8.6-2 .6-1.5 0-1.8.12-1.8.8 0 .7-.3.8-2.2.8-1.6 0-2.2.15-2.2.56 0 .37-.7.66-2 .84-1.1.15-2 .5-2.2.83-.1.34-.7.57-1.6.57-1.1 0-1.4.15-1.4.8 0 .64-.2.8-1.3.8-.7 0-1.6.25-2.1.55-.4.3-1.4.68-2.1.84-.7.1-1.4.5-1.5.8-.1.3-.7.5-1.4.5-.6 0-1.2.2-1.4.5-.1.3-.8.7-1.5.8-.8.1-1.3.5-1.3.8 0 .4-.4.6-1.2.6-.9 0-1.3.2-1.4.8-.1.5-.5.8-1.4.8-.7 0-1.2.2-1.4.6-.1.3-.6.6-1 .6-.5 0-.7.2-.7.8 0 .6-.3.8-1.4.8-1 0-1.4.1-1.4.6 0 .4-.4.6-1.2.6-.7 0-1.3.2-1.6.8-.2.4-.6.8-.8.8-.2 0-.7.3-1.2.8-.4.4-1.1.8-1.6.8-.4 0-.8.2-.8.6 0 .3-.3.6-.8.6-.4 0-1.1.3-1.6.8-.4.4-1.1.8-1.4.8-.3 0-.6.2-.6.6 0 .3-.3.6-.8.6-.4 0-1 .3-1.3.8-.3.4-.9.8-1.4.8-.5 0-.9.2-.9.6 0 .3-.3.6-.6.6s-.6.3-.6.8c0 .6-.3.8-1.2.8-.9 0-1.3.2-1.4.8-.1.4-.5.8-1 .8-.4 0-.7.2-.7.6 0 .3-.3.6-.8.6s-.8.2-.8.7c0 .4-.7 1-2 1.6-1.1.5-2 1.1-2 1.5 0 .3-.3.6-.8.6s-.8.2-.8.8-.2.8-.8.8c-.4 0-.8.2-.8.6 0 .3-.2.6-.6.6-.3 0-.6.3-.6.8s-.2.8-.8.8c-.4 0-.8.2-.8.6 0 .3-.1.6-.3.6-.2 0-.8.4-1.4.9-2.1 1.9-2.6 2.3-2.9 2.3-.2 0-.8.6-1.5 1.4-.6.7-1.4 1.4-1.7 1.4s-.5.2-.5.4-.6 1-1.4 1.7c-.7.7-1.4 1.4-1.4 1.6 0 .3-.4.8-2.2 2.8-.6.6-1 1.2-1 1.4 0 .2-.3.4-.6.4s-.6.3-.6.8-.3.8-.8.8c-.4 0-.8.3-.8.6s-.3.6-.6.6-.6.3-.6.8-.3.8-.8.8-.8.3-.8.8c0 .4-.3.8-.6.8s-.6.1-.6.3c0 .2-.4.7-.8 1.3-.4.5-.8 1.2-.8 1.6 0 .4-.3.7-.8.7s-.8.2-.8.8c0 .4-.3.8-.6.8s-.6.3-.6.7c0 .4-.4.9-.8 1-.6.2-.8.6-.8 1.5 0 1-.2 1.2-.8 1.2-.4 0-.8.2-.8.6 0 .3-.3.6-.6.6s-.6.3-.6.7c0 .4-.4 1-.8 1.4-.4.4-.8 1-.8 1.4 0 .4-.3.7-.6.7s-.6.3-.6.8c0 .4-.3.8-.6.8s-.7.5-.8 1.4c-.2.8-.5 1.4-.8 1.4-.3 0-.6.3-.6.8 0 .4-.3 1.1-.8 1.6-.4.4-.8 1-.8 1.2 0 .2-.3.5-.8.8-.5.3-.8.8-.8 1.6s-.2 1.2-.6 1.2c-.4 0-.6.4-.6 1.4 0 1.1-.1 1.4-.8 1.4-.5 0-.8.3-.8.7 0 .4-.3.8-.6 1-.3.1-.6.7-.6 1.4 0 .8-.2 1.2-.8 1.4-.6.1-.8.5-.8 1.4 0 .8-.2 1.2-.6 1.2-.3 0-.7.5-.8 1.3-.1.8-.5 1.5-.8 1.6-.3.1-.5.7-.5 1.3 0 .6-.3 1.2-.6 1.5-.4.2-.8 1.3-.9 2.3-.1 1.2-.4 1.9-.7 1.9s-.6.4-.6 1.4c0 1.1-.1 1.4-.8 1.4s-.8.2-.8 1.4c0 .8-.2 1.5-.6 1.6-.3.1-.7 1.1-.8 2.2-.2 1.3-.5 1.9-.9 1.9s-.5.5-.5 2.2c0 1.9-.1 2.2-.8 2.2-.7 0-.8.2-.8 1.8 0 1.2-.2 1.9-.6 2-.44.2-.6.8-.6 2.3 0 1.8-.14 2.2-.8 2.3-.7.2-.8.6-.8 2.2 0 1.4-.2 2.1-.6 2.3-.5.17-.6.9-.6 2.8 0 2.2-.1 2.6-.8 2.77-.7.2-.8.6-.8 2.9 0 2.1-.2 2.8-.7 3.2-.6.4-.74 1.3-.9 4.4-.1 2.96-.3 3.8-.7 3.8-.42 0-.53 1-.53 5 0 3.1-.2 5-.4 5s-.4 8.4-.4 24.4c0 16 .1 24.4.4 24.4s.4 1.9.4 5c0 4.2.1 5 .6 5s.6.67.6 3.4c0 2.7.1 3.5.8 4.33.6.8.8 1.6.8 3.7 0 2.37.1 2.7.8 2.9.7.2.8.57.8 2.8 0 1.9.1 2.6.6 2.8.4.1.6.8.6 2.2 0 1.68.1 2 .8 2.2.6.2.8.57.8 2.3 0 1.5.1 2.2.6 2.4.4.2.6.8.6 2.1 0 1.5.1 1.8.8 1.8.7 0 .8.3.8 2.2 0 1.6.1 2.2.5 2.2.3 0 .6.7.8 2 .1 1.1.5 2 .8 2.2.3.1.6.7.6 1.6 0 1.1.1 1.4.8 1.4s.8.27.8 1.4c0 .9.2 1.4.5 1.4s.6.66.7 1.9c.14 1.06.5 2.1.87 2.3.3.3.6 1 .6 1.6 0 .6.3 1.2.6 1.3.3.1.7.8.8 1.6.2.8.5 1.4.88 1.4.4 0 .6.48.6 1.3 0 .9.2 1.3.8 1.4.55.2.8.6.8 1.4 0 .7.2 1.3.6 1.4.3.1.6.6.6 1 0 .5.26.78.8.78.6 0 .8.3.8 1.4 0 1 .16 1.4.6 1.4.4 0 .6.4.6 1.2 0 .77.26 1.3.8 1.6.4.25.8.6.8.8 0 .24.3.77.8 1.2.4.45.8 1.17.8 1.6 0 .45.2.8.5.8s.7.6.8 1.4c.2.85.5 1.4.9 1.4.3 0 .6.37.6.8 0 .45.3.8.6.8.35 0 .6.34.6.75 0 .4.38 1.1.8 1.5.46.4.8 1 .8 1.4 0 .4.3.74.6.74.35 0 .6.2.6.6 0 .3.38.6.8.6.65 0 .8.2.8 1.2 0 .9.2 1.3.8 1.4.46.1.8.56.8.98 0 .4.3.7.6.7.35 0 .6.35.6.8 0 .5.3.8.8.8s.8.26.8.7c0 .4.38 1.15.8 1.66.46.5.8 1.1.8 1.3 0 .2.3.3.6.3.35 0 .6.4.6.8 0 .56.3.8.8.8s.8.3.8.8c0 .47.3.8.6.8.35 0 .6.3.6.6 0 .36.38.6.8.6.55 0 .8.3.8.8 0 .47.3.8.6.8.35 0 .6.2.6.4s.45.9.98 1.5c1.8 2 2.27 2.6 2.27 2.9 0 .2.7.9 1.4 1.6.8.7 1.4 1.45 1.4 1.7 0 .2.4.4.8.4.5 0 .8.2.8.4 0 .35 1.9 2.4 2.28 2.4.2 0 .9.6 2.7 2.24.6.5 1.2 1 1.4 1 .2 0 .4.3.4.6s.4.6.8.6c.6 0 .8.3.8.8 0 .45.3.8.6.8.4 0 .6.3.6.6s.4.6.8.6c.6 0 .8.3.8.8s.3.8.8.8.8.3.8.6.9 1 2 1.5c1.3.6 2 1.16 2 1.6 0 .4.3.7.8.7s.8.3.8.6.4.6.8.6.8.4.94.8c.1.6.5.8 1.4.8 1 0 1.27.2 1.27.8 0 .45.3.8.6.8s.6.3.6.6c0 .4.4.6.9.6s1.1.4 1.4.8c.3.45.8.8 1.3.8.4 0 .8.3.8.6s.3.6.6.6.9.4 1.4.8c.4.45 1.1.8 1.6.8.4 0 .8.3.8.6s.3.6.8.6c.4 0 1.1.4 1.6.8.4.45 1 .8 1.2.8.2 0 .5.4.8.8.3.5.8.8 1.6.8s1.2.2 1.2.6c0 .4.4.6 1.4.6 1.1 0 1.4.16 1.4.8 0 .5.3.8.7.8.4 0 .9.3 1 .6.1.35.7.6 1.4.6.8 0 1.2.2 1.4.8.18.6.5.8 1.4.8.9 0 1.3.2 1.3.6 0 .4.58.7 1.4.9.7.13 1.4.5 1.6.8.1.3.7.6 1.3.6.7 0 1.3.23 1.4.54.1.3.8.7 1.6.8.76.2 1.7.6 2.1.9.47.3 1.4.5 2.1.5 1.1 0 1.3.2 1.3.8 0 .66.3.8 1.4.8.9 0 1.5.24 1.7.6.2.3 1.1.7 2.2.8 1.3.2 2 .46 2 .8 0 .4.6.6 2.2.6 1.96 0 2.2.1 2.2.8 0 .67.3.8 1.8.8 1.3 0 1.9.2 2.1.6.2.4.85.6 2.36.6 1.8 0 2.1.1 2.3.8.2.66.54.8 2.24.8 1.5 0 2 .13 2 .6s.6.6 2.7.6c2.4 0 2.8.1 3 .8.2.7.53.8 2.9.8 2.05 0 2.9.17 3.7.8.8.64 1.6.8 4.3.8 2.6 0 3.35.1 3.53.6.2.5 1.14.6 5.05.6 2.9 0 4.8.15 4.8.4s8.4.4 24.4.4c16 0 24.4-.15 24.4-.4 0-.26 1.9-.4 4.8-.4 3.9 0 4.9-.1 5.1-.6.1-.5.9-.6 3.5-.6 2.7 0 3.4-.16 4.3-.8.8-.63 1.6-.8 3.7-.8 2.3 0 2.7-.1 2.8-.8.2-.7.5-.8 2.9-.8 2.2 0 2.77-.14 2.77-.6 0-.46.5-.6 2.1-.6 1.7 0 2.1-.14 2.3-.8.2-.7.57-.8 2.3-.8 1.5 0 2.2-.2 2.4-.6.13-.4.8-.6 2-.6 1.55 0 1.8-.13 1.8-.8 0-.7.3-.8 2.2-.8 1.64 0 2.2-.16 2.2-.57 0-.4.7-.7 2-.9 1.1-.15 2.05-.5 2.2-.83.1-.3.76-.5 1.6-.5 1.14 0 1.4-.2 1.4-.8 0-.7.3-.8 1.3-.8.74 0 1.7-.3 2.1-.6.45-.3 1.4-.67 2.14-.8.7-.2 1.4-.57 1.52-.9.1-.3.7-.6 1.4-.6.6 0 1.26-.24 1.4-.6.1-.3.8-.6 1.57-.8.8-.1 1.4-.5 1.4-.8 0-.4.4-.6 1.2-.6.9 0 1.3-.2 1.5-.8.16-.6.56-.8 1.4-.8.7 0 1.27-.3 1.4-.6.13-.3.6-.6 1-.6.5 0 .8-.3.8-.8 0-.7.26-.8 1.4-.8 1 0 1.4-.2 1.4-.6 0-.4.4-.6 1.2-.6.75 0 1.3-.3 1.6-.8.23-.44.6-.8.8-.8.2 0 .75-.4 1.2-.8.43-.44 1.15-.8 1.6-.8.43 0 .8-.3.8-.6s.35-.6.8-.6c.43 0 1.15-.4 1.6-.8.43-.44 1.06-.8 1.4-.8.3 0 .6-.3.6-.6s.35-.6.8-.6c.43 0 1-.4 1.3-.8.26-.44.9-.8 1.4-.8.5 0 .9-.24.9-.6 0-.3.26-.6.6-.6.3 0 .6-.4.6-.8 0-.6.26-.8 1.23-.8.9 0 1.3-.2 1.4-.8.1-.44.52-.8 1-.8.4 0 .72-.3.72-.6s.4-.6.8-.6c.5 0 .8-.3.8-.7 0-.5.7-1 2-1.6 1.1-.5 2-1.2 2-1.5 0-.3.4-.6.8-.6.5 0 .8-.3.8-.8s.3-.8.8-.8c.47 0 .8-.3.8-.6s.3-.6.6-.6.6-.4.6-.8c0-.5.3-.8.8-.8.47 0 .8-.3.8-.6s.2-.6.4-.6.87-.4 1.4-1c1.9-1.6 2.6-2.2 2.8-2.2.4 0 2.2-2 2.2-2.4 0-.2.4-.4.8-.4.5 0 .8-.2.8-.4s.7-1 1.4-1.7c.8-.7 1.4-1.4 1.4-1.6 0-.3.5-.8 2.3-2.8.56-.6 1-1.25 1-1.46 0-.2.3-.4.6-.4.35 0 .6-.3.6-.8s.3-.8.8-.8c.46 0 .8-.2.8-.6 0-.3.3-.6.6-.6.35 0 .6-.3.6-.8s.3-.8.8-.8.8-.2.8-.8c0-.4.3-.8.6-.8.35 0 .6-.1.6-.3 0-.2.4-.73.8-1.24.46-.5.8-1.3.8-1.7 0-.5.3-.8.8-.8.55 0 .8-.3.8-.8 0-.4.3-.8.6-.8.35 0 .6-.3.6-.8 0-.4.4-.8.8-1 .6-.1.8-.5.8-1.4 0-1 .2-1.27.8-1.27.46 0 .8-.3.8-.6s.3-.6.6-.6c.4 0 .6-.4.6-.9s.4-1.1.8-1.4c.46-.3.8-.9.8-1.3s.3-.8.6-.8c.35 0 .6-.3.6-.6s.4-.9.8-1.4c.46-.4.8-1.1.8-1.6 0-.4.3-.8.6-.8.35 0 .6-.3.6-.8 0-.4.4-1.1.8-1.6.46-.4.8-1 .8-1.2 0-.2.4-.5.8-.8.54-.3.8-.8.8-1.6s.2-1.2.6-1.2c.44 0 .6-.4.6-1.4 0-1.1.2-1.4.8-1.4.54 0 .8-.3.8-.7 0-.4.3-.8.6-1 .36-.1.6-.7.6-1.4 0-.8.25-1.2.8-1.4.6-.1.8-.5.8-1.4 0-.8.2-1.25.6-1.25.35 0 .7-.6.84-1.4.1-.74.5-1.5.8-1.6.3-.1.5-.7.5-1.3 0-.6.3-1.3.6-1.5.4-.23.7-1.3.82-2.3.1-1.2.4-1.87.7-1.87s.5-.5.5-1.4c0-1.2.1-1.4.8-1.4s.8-.3.8-1.4c0-.9.2-1.5.5-1.7.3-.12.7-1.1.9-2.2.18-1.3.47-2 .84-2 .4 0 .6-.6.6-2.2 0-1.9.1-2.2.8-2.2.7 0 .8-.22.8-1.8 0-1.2.2-1.9.6-2 .4-.2.6-.83.6-2.4 0-1.8.1-2.1.8-2.3.64-.1.8-.5.8-2.2 0-1.4.2-2 .6-2.2.43-.2.6-.9.6-2.8 0-2.2.1-2.6.8-2.8.7-.1.8-.5.8-2.9 0-2.1.13-2.8.7-3.2.54-.4.7-1.2.8-4.3.1-2.9.3-3.8.7-3.8.5 0 .6-.9.6-5 0-3 .2-5 .4-5s.4-8.4.4-24.4c0-16-.1-24.4-.4-24.4-.25 0-.4-1.9-.4-5 0-4-.1-5-.56-5-.4 0-.6-.9-.7-3.8-.1-3.1-.3-3.9-.8-4.32-.6-.4-.7-1.1-.7-3.2 0-2.3-.1-2.7-.8-2.9-.7-.2-.8-.5-.8-2.7 0-1.9-.2-2.6-.6-2.8-.45-.15-.6-.8-.6-2.2 0-1.64-.2-2-.8-2.2-.7-.2-.8-.53-.8-2.3 0-1.5-.2-2.2-.6-2.34-.4-.1-.6-.8-.6-2 0-1.5-.15-1.8-.8-1.8-.7 0-.8-.3-.8-2.2 0-1.6-.2-2.2-.6-2.2-.36 0-.65-.7-.8-2-.2-1.1-.5-2.04-.9-2.2-.37-.1-.6-.75-.6-1.6 0-1.1-.17-1.4-.8-1.4s-.8-.2-.8-1.4c0-.9-.2-1.4-.57-1.4-.4 0-.6-.6-.8-1.8-.1-1.1-.5-2.1-.84-2.4-.32-.2-.6-.9-.6-1.5s-.26-1.14-.57-1.3c-.3-.1-.7-.8-.8-1.6-.2-.8-.5-1.3-.9-1.3s-.6-.4-.6-1.26c0-.9-.2-1.3-.8-1.5-.6-.2-.8-.6-.8-1.4 0-.7-.3-1.3-.6-1.4-.3-.1-.6-.6-.6-1 0-.5-.3-.8-.8-.8-.6 0-.8-.3-.8-1.4 0-1-.2-1.4-.6-1.4-.4 0-.6-.4-.6-1.2 0-.8-.3-1.3-.8-1.6-.4-.2-.8-.6-.8-.8 0-.2-.4-.8-.8-1.2-.4-.5-.8-1.2-.8-1.6 0-.5-.3-.8-.6-.8s-.6-.4-.6-.8c0-.5-.4-1.2-.8-1.6-.4-.5-.8-1.1-.8-1.4 0-.3-.3-.6-.6-.6s-.6-.4-.6-.8c0-.5-.4-1-.8-1.3-.4-.3-.8-.9-.8-1.4 0-.5-.2-.9-.6-.9-.3 0-.6-.3-.6-.6s-.4-.6-.8-.6c-.6 0-.8-.3-.8-1.3 0-.9-.2-1.3-.8-1.4-.4-.1-.8-.6-.8-1s-.3-.78-.6-.78-.6-.4-.6-.8c0-.56-.3-.8-.8-.8s-.8-.3-.8-.77c0-.4-.4-1.2-.8-1.7s-.8-1.1-.8-1.3c0-.2-.3-.3-.6-.3s-.6-.3-.6-.8-.3-.8-.8-.8-.8-.2-.8-.8c0-.4-.3-.8-.6-.8s-.6-.2-.6-.6c0-.3-.4-.6-.8-.6-.5 0-.8-.2-.8-.8 0-.4-.3-.8-.6-.8s-.6-.1-.6-.4c0-.2-.4-.8-.9-1.4-1.8-2-2.3-2.6-2.3-2.9 0-.2-.6-.9-1.4-1.6-.8-.7-1.4-1.4-1.4-1.7 0-.2-.2-.4-.5-.4s-1-.6-1.7-1.4c-.6-.8-1.3-1.4-1.5-1.4-.3 0-.8-.4-2.9-2.3-.55-.5-1.2-.9-1.4-.9-.2 0-.4-.3-.4-.6s-.35-.6-.8-.6c-.5 0-.8-.3-.8-.8 0-.4-.3-.8-.6-.8s-.6-.3-.6-.6-.35-.6-.8-.6c-.5 0-.8-.3-.8-.8s-.3-.8-.8-.8c-.4 0-.8-.3-.8-.6s-.9-1-2-1.5c-1.3-.6-2-1.1-2-1.6 0-.4-.3-.7-.8-.7-.4 0-.8-.3-.8-.6s-.3-.6-.7-.6c-.4 0-.87-.3-1-.8-.2-.6-.57-.8-1.47-.8-1 0-1.28-.2-1.28-.8 0-.4-.28-.8-.6-.8-.34 0-.6-.3-.6-.6s-.38-.6-.9-.6c-.5 0-1.14-.3-1.4-.8-.3-.4-.88-.8-1.3-.8-.45 0-.8-.3-.8-.6s-.28-.6-.6-.6c-.34 0-.97-.3-1.4-.8-.45-.4-1.17-.8-1.6-.8-.45 0-.8-.3-.8-.6s-.37-.6-.8-.6c-.45 0-1.17-.3-1.6-.8-.45-.4-.98-.8-1.2-.8-.2 0-.57-.3-.8-.8-.3-.5-.85-.8-1.6-.8-.8 0-1.2-.2-1.2-.6 0-.4-.4-.6-1.4-.6-1.14 0-1.4-.1-1.4-.8 0-.5-.28-.8-.77-.8-.4 0-.86-.3-1-.6-.1-.3-.7-.6-1.4-.6-.8 0-1.2-.2-1.4-.8-.1-.6-.5-.8-1.4-.8-.8 0-1.2-.2-1.2-.6 0-.3-.6-.7-1.4-.8-.8-.1-1.5-.5-1.6-.8-.1-.3-.7-.56-1.4-.56s-1.3-.3-1.4-.6c-.1-.3-.8-.7-1.6-.87-.7-.1-1.7-.5-2.1-.8-.4-.3-1.33-.5-2.1-.5-1 0-1.3-.16-1.3-.8 0-.65-.23-.8-1.4-.8-.8 0-1.5-.23-1.6-.6-.1-.3-1.04-.7-2.2-.8-1.3-.14-1.93-.4-1.93-.8s-.6-.55-2.2-.55c-1.9 0-2.2-.1-2.2-.8 0-.7-.3-.8-1.8-.8-1.3 0-1.9-.2-2.1-.6-.2-.4-.87-.6-2.4-.6-1.8 0-2.1-.1-2.3-.8-.2-.6-.55-.8-2.25-.8-1.5 0-2-.1-2-.6 0-.4-.6-.6-2.72-.6-2.4 0-2.7-.1-2.9-.8-.2-.7-.5-.8-2.9-.8-2.1 0-2.9-.2-3.7-.8-.8-.6-1.6-.8-4.3-.8-2.6 0-3.4-.1-3.5-.6-.2-.5-1.1-.6-5-.6-2.9 0-4.8-.1-4.8-.4S216 0 200 0s-24.4.15-24.4.4M295.7 120c4.88 1.4 11.64 6.44 12.53 9.36.15.48.46 1.1.7 1.4.22.3.72 1.46 1.1 2.6 4.2 12.66-4.68 30.17-21.13 41.6-2.42 1.7-5.2 3.63-8.2 5.75-1.15.8-3.45 2.4-5.1 3.5l-5.2 3.6c-1.2.9-3.55 2.5-5.2 3.6-1.65 1.2-3.94 2.7-5.1 3.6-3.82 2.7-5.87 4.1-8.6 6l-5.4 3.8c-1.48 1.1-3.78 2.6-5.1 3.5-1.32.9-2.6 1.8-2.86 2.1-.26.3-1.93 1.4-3.73 2.6l-9.4 6.6c-7.4 5.4-9.8 7-13.5 9.2-12.1 7.1-19.4 6.9-31.4-.8-4.1-2.6-7.4-4.8-9.6-6.4-2.7-2-6.5-4.7-12.8-9.1l-4.1-2.9-5.1-3.5-5.1-3.5-4.2-3-5.1-3.5-5.1-3.5c-3.8-2.7-5.8-4.1-8.6-6-1.4-1-3.8-2.7-5.3-3.7l-7.5-5.3c-2.6-1.9-5.3-3.8-5.9-4.1-3.3-2.1-12.1-11.7-14.9-16.3l-1.4-2.4c-4-6.8-4.4-16.4-.8-24 2.8-5.8 6.8-9.2 12.7-10.5 4.4-1 195.1-.9 198.7.1m-210.4 61c3.5 3.4 7 6 17 12.8l14.6 10c1.3 1 3.9 2.7 5.6 3.9 1.8 1.2 3.3 2.3 3.4 2.4.2.2 1.8 1.3 8.9 6.2 1.9 1.3 3.5 2.6 3.5 2.9 0 .8-55.7 56.3-56.2 56.1-.5-.2-.8-93.7-.3-95.7.4-1.3.5-1.2 3.6 1.8m225.5-1.9c.5 2.1 0 95.7-.5 95.7-.6 0-55.6-54.9-55.9-55.8-.1-.4.1-.8.7-1.2.5-.2 1-.6 1.2-.7.1-.1 1.4-1 2.8-2l6.4-4.4 9.4-6.4c3.1-2.1 6.5-4.4 7.6-5.2 1.1-.8 3.6-2.5 5.6-3.8 2-1.3 3.7-2.5 3.8-2.6.1-.1 1.3-.9 2.6-1.8 7.2-4.8 9.6-6.7 13.2-10.2 2.6-2.5 3-2.7 3.3-1.4m-155.7 51c.7.5 1.4 1 1.5 1.1.1.1.7.6 1.4 1.1l7.2 5.1c3.4 2.4 6.4 4.4 7.2 4.8.4.2 1.6.8 2.6 1.4 17.7 10 31.7 8.3 52.6-6.4l3.5-2.4 4-2.7c1.2-.8 2.5-1.8 2.9-2.1.6-.5.8-.5 1.4-.1 1.7 1.3 64.1 63.98 64.1 64.3 0 .5-1.9 1.9-3.9 3-1.4.7-2.9 1.16-6.2 1.9-2.1.48-191.9.48-194 0-3.7-.8-5.1-1.3-6.1-1.9-2.7-1.63-4.1-2.7-4.1-3 0-.4 64.2-64.72 64.6-64.72.1 0 .8.4 1.5.9" fill="#fff"/><path d="M97 119.83c-4.56 1.08-9.24 4.33-11.2 7.77-5 8.75-5.22 19.04-.6 26.8l1.44 2.4c2.75 4.58 11.56 14.23 14.93 16.34.58.37 3.23 2.23 5.9 4.14 2.68 1.9 6.05 4.3 7.5 5.3l5.33 3.7c2.73 1.88 4.78 3.3 8.6 6 1.16.8 3.45 2.4 5.1 3.52 1.65 1.13 3.94 2.7 5.1 3.52l4.2 2.96c1.16.8 3.45 2.4 5.1 3.52 1.65 1.13 3.94 2.7 5.1 3.52l4.1 2.88c6.25 4.38 10.03 7.05 12.8 9.05 2.22 1.6 5.54 3.83 9.64 6.47 12.04 7.75 19.25 7.94 31.42.83 3.75-2.2 6.07-3.76 13.54-9.14 4.7-3.3 6.33-4.5 9.4-6.6 1.8-1.2 3.48-2.3 3.74-2.6.25-.2 1.54-1.1 2.86-2 1.32-.9 3.62-2.4 5.1-3.5l5.4-3.7 8.6-6c1.15-.8 3.45-2.4 5.1-3.5 1.65-1.1 4-2.7 5.2-3.6l5.2-3.6 5.1-3.5 8.2-5.7c16.45-11.4 25.34-28.9 21.13-41.6-.38-1.1-.88-2.3-1.1-2.6-.24-.3-.55-.9-.7-1.4-.9-2.9-7.65-7.9-12.54-9.3-3.6-1-194.4-1.1-198.7-.1m-15.2 59.4c-.6 2.1-.3 95.5.2 95.8.6.2 56.3-55.2 56.3-56.1 0-.2-1.6-1.5-3.5-2.8-7.2-4.9-8.7-5.9-8.9-6.1-.1-.1-1.7-1.1-3.4-2.3-1.8-1.2-4.3-2.9-5.6-3.8l-14.6-10c-10-6.7-13.5-9.4-17-12.7-3.1-2.9-3.3-3-3.6-1.7m225.9 1.4c-3.6 3.5-6 5.4-13.2 10.3-1.4.9-2.5 1.7-2.6 1.8-.1.1-1.9 1.3-3.8 2.6l-5.6 3.8-7.6 5.2c-3.1 2.1-7.3 5-9.4 6.4l-6.4 4.4c-1.5 1-2.7 1.9-2.8 2-.1.2-.6.5-1.2.8-.6.3-.9.7-.7 1.2.3 1 55.3 55.9 55.9 55.9.5 0 1-93.6.5-95.7-.3-1.3-.7-1.2-3.3 1.4m-186.3 81c-17.6 17.3-32.1 32-32.1 32.2 0 .4 1.4 1.4 4 3 1 .7 2.4 1.1 6.1 1.9 2.1.5 191.9.5 194 0 3.3-.7 4.8-1.2 6.2-1.9 2-1 4-2.5 4-2.9 0-.4-62.5-63-64.1-64.3-.6-.5-.8-.4-1.4.1-.4.3-1.7 1.3-2.9 2.1l-4 2.7-3.5 2.4c-21 14.7-35 16.4-52.6 6.4-1-.6-2.2-1.2-2.6-1.4-.8-.4-3.8-2.4-7.2-4.8l-7.2-5.1c-.7-.4-1.3-.9-1.4-1-.5-.4-2.8-2-3-2-.2 0-14.7 14.5-32.5 32.2" fill="#000416"/></g></svg>