<svg id="Группа_1" data-name="Группа 1" xmlns="http://www.w3.org/2000/svg" width="398" height="398" viewBox="0 0 398 398"><defs><style>.cls-1 { fill: none; stroke: #fff; stroke-width: 23.02px; } .cls-2, .cls-3 { fill: #fff; } .cls-3 { fill-rule: evenodd; }</style></defs><circle id="Эллипс_1" data-name="Эллипс 1" class="cls-1" cx="199" cy="199" r="187.5"/><rect id="Прямоугольник_скругл._углы_1" data-name="Прямоугольник, скругл. углы 1" class="cls-2" x="144.5" y="101.5" width="22" height="201" rx="11" ry="11"/><path id="Прямоугольник_скругл._углы_1_копия" data-name="Прямоугольник, скругл. углы 1 копия" class="cls-3" d="M152.7 108.2c3.8-4.8 10.2-6 14.4-2.7l113 88.7c4.5 3.3 4.8 9.8 1 14.6s-10 6-14.3 2.7L154 122.8c-4-3.3-4.5-9.8-.8-14.6z"/><path id="Прямоугольник_скругл._углы_1_копия_2" data-name="Прямоугольник, скругл. углы 1 копия 2" class="cls-3" d="M152.5 297.6c-3.7-4.8-3.4-11.3.8-14.6l113-88.3c4.2-3.3 10.6-2 14.3 2.8s3.4 11.3-.7 14.5l-113 88.3c-4.8 3.3-11 2-15-2.7z"/></svg>