<svg width="400" height="400" xmlns="http://www.w3.org/2000/svg" display="block"><g fill-rule="evenodd"><path d="M178.8.46c-2.97.19-5.76.512-6.2.717-.44.205-2.374.49-4.3.634-1.923.15-3.598.43-3.722.63-.124.2-.935.37-1.802.37s-1.576.16-1.576.35c0 .19-1.256.47-2.79.63-1.536.15-2.883.43-2.995.61-.112.18-1.376.46-2.81.61-1.432.15-2.605.43-2.605.6s-.99.45-2.2.6c-1.21.15-2.2.42-2.2.6s-.99.45-2.2.6c-1.21.15-2.2.43-2.2.61 0 .19-.758.47-1.685.62-.926.16-2.05.47-2.5.7-1.774.9-2.17 1.04-3.566 1.31-.8.15-1.45.42-1.45.59 0 .17-.81.43-1.8.58-.99.15-1.8.44-1.8.64 0 .21-.72.49-1.6.63-.88.14-1.6.4-1.6.57 0 .17-.56.44-1.23.59-.68.15-1.71.52-2.3.83-.59.31-1.3.56-1.58.56s-.5.18-.5.4c0 .22-.36.4-.8.4-.44 0-.8.16-.8.36 0 .2-.63.47-1.4.62-.77.14-1.4.42-1.4.61s-.54.47-1.2.62c-.66.14-1.2.41-1.2.6s-.54.45-1.2.6c-.66.14-1.2.41-1.2.6s-.54.45-1.2.6c-.66.14-1.2.41-1.2.6s-.54.45-1.2.6c-.66.14-1.2.39-1.2.55 0 .16-.81.62-1.8 1.03-.99.41-1.8.88-1.8 1.06 0 .18-.41.44-.9.6-.5.16-.99.39-1.1.53-.11.13-1.1.7-2.2 1.25s-2.22 1.21-2.49 1.46c-.28.26-1.05.71-1.71 1-.67.29-1.21.68-1.21.85 0 .17-.41.49-.9.7-1.09.47-2.28 1.21-3.02 1.89-.3.27-.78.5-1.07.5-.29 0-.64.27-.76.6-.13.33-.51.6-.84.6-.34 0-.62.14-.62.31 0 .17-.62.64-1.38 1.05-.76.41-1.47.99-1.59 1.29-.12.3-.42.55-.68.55-.26 0-.89.45-1.4 1s-1.08 1-1.27 1c-.4 0-2.57 1.7-4.22 3.3-.63.6-1.29 1.1-1.48 1.1-.19 0-.85.49-1.47 1.1-.62.6-2.03 1.82-3.13 2.69s-2.06 1.72-2.12 1.87c-.28.61-2.07 2.34-2.43 2.34-.51 0-11.25 10.64-11.25 11.14 0 .39-2.1 2.66-2.7 2.92-.17.08-1.03 1.04-1.91 2.14s-2.09 2.51-2.69 3.13c-.61.62-1.1 1.28-1.1 1.47 0 .18-.5.85-1.1 1.47-1.6 1.66-3.3 3.83-3.3 4.22 0 .19-.45.76-1 1.27s-1 1.14-1 1.39c0 .26-.25.57-.55.68-.31.12-.89.83-1.29 1.59-.41.76-.88 1.38-1.05 1.38-.17 0-.31.28-.31.61 0 .34-.27.72-.6.84-.33.13-.6.47-.6.76 0 .29-.23.78-.5 1.08-.68.74-1.42 1.93-1.89 3.02-.22.5-.53.9-.71.9-.17 0-.56.54-.85 1.21-.29.66-.74 1.43-1 1.71-.25.27-.91 1.39-1.46 2.49-.55 1.09-1.11 2.08-1.25 2.19-.13.11-.37.6-.53 1.1-.16.49-.42.9-.6.9s-.65.81-1.06 1.8c-.41.99-.87 1.8-1.03 1.8-.16 0-.41.54-.55 1.2-.15.66-.42 1.2-.6 1.2s-.46.54-.6 1.2c-.15.66-.42 1.2-.6 1.2s-.46.54-.6 1.2c-.15.66-.42 1.2-.6 1.2s-.46.54-.6 1.2c-.15.66-.42 1.2-.62 1.2-.19 0-.47.63-.61 1.4-.14.77-.42 1.4-.62 1.4-.19 0-.35.36-.35.8 0 .44-.18.8-.4.8-.22 0-.4.22-.4.5-.01.27-.26.98-.57 1.57-.31.59-.68 1.63-.83 2.3-.15.68-.41 1.23-.59 1.23s-.44.72-.58 1.6c-.14.88-.43 1.6-.63 1.6-.21 0-.5.81-.64 1.8-.15.99-.43 1.8-.63 1.8s-.36.38-.36.84c0 .75-.68 2.61-1.59 4.38-.17.34-.44 1.38-.6 2.3-.16.93-.44 1.69-.62 1.69s-.46.99-.61 2.2c-.15 1.21-.42 2.2-.6 2.2s-.45.99-.6 2.2c-.15 1.21-.42 2.2-.6 2.2s-.45 1.17-.6 2.61c-.15 1.44-.43 2.7-.61 2.81-.18.11-.45 1.46-.6 3-.15 1.53-.43 2.79-.62 2.79s-.35.71-.35 1.58c0 .87-.17 1.68-.37 1.8-.2.13-.48 1.8-.62 3.73s-.42 3.86-.62 4.3c-1.55 3.43-1.55 51.38 0 54.8.2.44.48 2.38.62 4.3.14 1.93.43 3.6.63 3.72.2.13.36.94.36 1.81s.16 1.58.35 1.58c.2 0 .48 1.26.63 2.79.15 1.54.42 2.88.6 3 .18.11.46 1.37.61 2.81.15 1.43.43 2.6.6 2.6s.45.99.6 2.2c.15 1.21.42 2.2.6 2.2s.45.99.6 2.2c.15 1.21.43 2.2.61 2.2.19 0 .47.76.62 1.69.16.93.43 1.96.6 2.3.91 1.77 1.59 3.63 1.59 4.38 0 .46.16.84.35.84.19 0 .47.81.62 1.8.15.99.44 1.8.64 1.8.21 0 .49.72.63 1.6.14.88.4 1.6.58 1.6.17 0 .44.55.583 1.23.15.68.52 1.71.83 2.3.31.59.56 1.3.56 1.58 0 .274.18.5.4.5.22 0 .4.36.4.8 0 .44.16.8.36.8.19 0 .47.63.62 1.4.14.77.42 1.4.61 1.4s.47.54.61 1.2c.15.66.42 1.2.6 1.2s.46.54.6 1.2c.15.66.42 1.2.6 1.2s.46.54.6 1.2c.15.66.42 1.2.6 1.2s.46.54.6 1.2c.15.66.39 1.2.54 1.2.15 0 .6.674.99 1.5.79 1.67 1.97 3.79 2.28 4.1.11.11.65 1.096 1.2 2.19.55 1.094 1.21 2.215 1.46 2.49.25.27.7 1.04.99 1.706.29.664.676 1.21.85 1.21.17 0 .485.4.7.9.47 1.09 1.21 2.27 1.89 3.01.27.3.5.78.5 1.07 0 .29.27.63.6.76.33.127.6.507.6.84 0 .34.14.616.31.616.17 0 .64.62 1.05 1.38.406.76.99 1.47 1.29 1.59.3.11.55.42.55.67 0 .26.45.89 1 1.4s1 1.08 1 1.27c0 .397 1.7 2.57 3.3 4.22.6.63 1.1 1.29 1.1 1.48 0 .186.49.85 1.1 1.47.6.62 1.816 2.03 2.69 3.13.88 1.1 1.73 2.06 1.905 2.135.576.25 2.7 2.52 2.7 2.89 0 .48 10.3 10.78 10.78 10.78.36 0 2.64 2.13 2.88 2.71.076.17 1.037 1.03 2.137 1.9 1.1.88 2.51 2.09 3.13 2.69.62.61 1.28 1.1 1.47 1.1.18 0 .85.5 1.47 1.1 1.65 1.6 3.83 3.3 4.22 3.3.19 0 .74.42 1.22.93s1.19 1.05 1.58 1.19c.38.14.7.417.7.61s.63.69 1.4 1.103c.77.416 1.4.89 1.4 1.06 0 .17.27.31.61.31.333 0 .713.27.84.6.123.33.47.6.76.6.29 0 .77.228 1.07.5.74.68 1.92 1.42 3.01 1.89.495.218.9.53.9.7 0 .177.544.56 1.21.85.664.298 1.43.747 1.71 1 .27.25 1.393.91 2.49 1.46 1.1.55 2.08 1.09 2.19 1.2.31.31 2.43 1.486 4.1 2.28.83.39 1.5.83 1.5.98 0 .15.54.4 1.2.54.66.15 1.2.42 1.2.6s.54.46 1.2.6c.66.15 1.2.42 1.2.6s.54.46 1.2.6c.66.15 1.2.42 1.2.6s.54.46 1.2.6c.66.15 1.2.42 1.2.62 0 .19.63.47 1.4.61.77.15 1.4.43 1.4.62 0 .2.36.36.8.36.44 0 .8.18.8.4 0 .22.23.4.5.4.28 0 .98.255 1.57.56.59.31 1.63.68 2.3.83.68.15 1.23.41 1.23.59s.72.43 1.6.58c.88.14 1.6.42 1.6.627 0 .21.81.49 1.8.64.99.15 1.8.43 1.8.63s.4.35.9.35c.49 0 1.42.27 2.05.6.63.33 1.49.59 1.9.59.42 0 .76.16.76.35 0 .2.81.48 1.8.63.99.15 1.8.425 1.8.616 0 .19.99.47 2.2.62 1.21.15 2.2.42 2.2.6s.99.45 2.2.6c1.21.15 2.2.42 2.2.6 0 .17 1.17.44 2.603.6 1.43.15 2.697.43 2.81.61.11.18 1.46.45 2.99.6 1.54.15 2.79.43 2.79.62s.71.35 1.58.35 1.68.16 1.8.36c.13.2 1.8.48 3.73.62s3.86.42 4.3.62c3.43 1.55 51.38 1.55 54.8 0 .44-.2 2.38-.48 4.3-.62 1.93-.14 3.6-.43 3.73-.63.13-.2.94-.364 1.8-.364s1.58-.155 1.58-.35c0-.19 1.26-.47 2.79-.62 1.54-.15 2.88-.42 3-.6.11-.18 1.374-.46 2.81-.61 1.43-.15 2.603-.426 2.603-.6s.99-.45 2.2-.6c1.21-.15 2.2-.42 2.2-.6s.99-.45 2.2-.6c1.21-.15 2.2-.43 2.2-.62 0-.194.81-.47 1.8-.62.99-.15 1.8-.43 1.8-.63s.34-.356.75-.356 1.27-.27 1.9-.6c.63-.33 1.55-.6 2.044-.6.49 0 .9-.16.9-.354 0-.2.81-.48 1.8-.62.99-.15 1.8-.432 1.8-.64 0-.2.72-.482 1.6-.622.88-.14 1.6-.4 1.6-.57 0-.18.55-.44 1.23-.59.67-.15 1.71-.52 2.3-.83.59-.31 1.3-.56 1.57-.564.27 0 .5-.188.5-.408 0-.22.36-.4.8-.4.44 0 .8-.16.8-.35 0-.19.63-.47 1.4-.62.77-.14 1.4-.42 1.4-.61s.54-.47 1.2-.61c.66-.14 1.2-.41 1.2-.6s.54-.45 1.2-.6c.66-.14 1.2-.41 1.2-.6s.54-.45 1.2-.6c.66-.14 1.2-.41 1.2-.6s.54-.45 1.2-.6c.66-.14 1.2-.383 1.2-.533 0-.15.67-.6 1.5-.99 1.67-.8 3.79-1.98 4.1-2.28.11-.11 1.09-.65 2.19-1.2 1.092-.55 2.22-1.21 2.49-1.46.27-.26 1.04-.71 1.71-1 .66-.29 1.21-.68 1.21-.85 0-.17.4-.49.9-.7 1.09-.47 2.27-1.215 3.01-1.89.3-.275.78-.5 1.07-.5.29 0 .63-.27.76-.6.12-.33.5-.6.84-.6.34 0 .61-.14.61-.31 0-.17.63-.65 1.4-1.06.77-.42 1.4-.91 1.4-1.106 0-.19.32-.46.7-.604.39-.14 1.1-.677 1.58-1.19.49-.51 1.04-.93 1.22-.93.4 0 2.57-1.7 4.23-3.3.62-.61 1.29-1.1 1.47-1.1.18 0 .847-.5 1.47-1.1.62-.61 2.03-1.82 3.13-2.695 1.1-.875 2.06-1.73 2.13-1.903.25-.57 2.53-2.7 2.89-2.7.477 0 10.78-10.3 10.78-10.773 0-.36 2.13-2.64 2.71-2.88.17-.07 1.027-1.03 1.9-2.13.875-1.1 2.09-2.51 2.69-3.13.61-.62 1.1-1.29 1.1-1.47 0-.19.5-.85 1.1-1.48 1.6-1.66 3.3-3.83 3.3-4.23 0-.18.45-.76 1-1.27s1-1.13 1-1.39.25-.56.55-.68c.306-.11.887-.83 1.29-1.58.41-.76.88-1.38 1.05-1.38.17 0 .31-.27.31-.61 0-.34.27-.72.6-.84.33-.13.6-.47.6-.76 0-.29.23-.776.5-1.076.68-.74 1.42-1.92 1.89-3.01.22-.49.53-.9.706-.9.17 0 .55-.54.84-1.21.3-.66.75-1.43 1-1.7.26-.28.92-1.4 1.47-2.49.55-1.1 1.11-2.09 1.25-2.2.13-.11.37-.6.525-1.1.15-.49.42-.9.59-.9s.646-.81 1.05-1.8c.41-.99.87-1.8 1.03-1.8.16 0 .408-.54.55-1.2.148-.66.418-1.2.6-1.2s.458-.54.6-1.2c.148-.66.418-1.2.6-1.2s.458-.54.6-1.2c.148-.66.418-1.2.6-1.2s.458-.54.6-1.2c.148-.66.42-1.2.617-1.2.19 0 .46-.63.61-1.4.14-.77.42-1.4.62-1.4.19 0 .35-.36.35-.8 0-.44.18-.8.4-.8.22 0 .4-.22.4-.5 0-.27.26-.98.563-1.57.31-.59.68-1.62.83-2.3.15-.67.41-1.226.59-1.226s.43-.72.57-1.6c.14-.88.42-1.6.63-1.6.2 0 .49-.81.64-1.8.15-.99.43-1.8.62-1.8s.36-.406.36-.9.27-1.417.6-2.047c.33-.63.6-1.48.6-1.9 0-.41.16-.75.352-.75.19 0 .48-.81.62-1.8.15-.99.42-1.8.61-1.8s.47-.99.62-2.2c.152-1.21.422-2.2.6-2.2.18 0 .45-.99.6-2.2.152-1.21.42-2.2.6-2.2s.45-1.17.6-2.6c.154-1.43.43-2.7.61-2.81.18-.11.452-1.46.603-2.99.15-1.534.43-2.79.62-2.79s.342-.71.342-1.576c0-.87.167-1.68.367-1.8.2-.124.48-1.8.62-3.723s.42-3.86.62-4.3c.655-1.45 1.19-13.77 1.19-27.4 0-13.63-.535-25.95-1.19-27.4-.2-.44-.48-2.37-.62-4.3-.144-1.92-.425-3.6-.63-3.72-.2-.13-.36-.94-.36-1.8s-.16-1.58-.35-1.58c-.19 0-.47-1.26-.62-2.79-.15-1.54-.42-2.88-.6-3-.18-.12-.46-1.38-.61-2.81-.15-1.44-.42-2.61-.6-2.61s-.45-.99-.6-2.2c-.15-1.21-.42-2.2-.6-2.2s-.45-.99-.6-2.2c-.15-1.21-.43-2.2-.62-2.2s-.47-.81-.62-1.8c-.15-.99-.43-1.8-.62-1.8s-.35-.34-.35-.75-.27-1.27-.6-1.9c-.33-.63-.6-1.55-.6-2.05 0-.5-.17-.9-.36-.9-.2 0-.48-.81-.63-1.8-.15-.99-.44-1.8-.64-1.8-.21 0-.49-.72-.63-1.6-.14-.88-.4-1.6-.58-1.6-.17 0-.43-.55-.58-1.23-.15-.68-.52-1.71-.83-2.3-.31-.59-.56-1.3-.56-1.576s-.18-.5-.4-.5c-.22 0-.4-.36-.4-.8 0-.44-.16-.8-.35-.8-.19 0-.47-.63-.62-1.4-.14-.77-.42-1.4-.61-1.4s-.47-.54-.61-1.2c-.14-.66-.41-1.2-.6-1.2s-.45-.54-.6-1.2c-.14-.66-.41-1.2-.6-1.2s-.45-.54-.6-1.2c-.14-.66-.41-1.2-.6-1.2s-.45-.54-.6-1.2c-.14-.66-.39-1.2-.55-1.2-.155 0-.62-.81-1.03-1.8-.41-.99-.883-1.8-1.06-1.8-.17 0-.44-.41-.59-.9-.15-.5-.39-.99-.53-1.1-.13-.11-.69-1.1-1.24-2.19s-1.21-2.22-1.46-2.49c-.25-.28-.7-1.05-1-1.71-.3-.67-.68-1.21-.85-1.21-.17 0-.49-.41-.7-.9-.47-1.09-1.22-2.28-1.89-3.01-.28-.3-.5-.79-.5-1.08 0-.29-.27-.636-.6-.76-.33-.13-.6-.51-.6-.84 0-.34-.14-.62-.31-.62-.17 0-.645-.62-1.05-1.38-.41-.76-.99-1.47-1.29-1.59-.306-.12-.55-.42-.55-.68 0-.26-.45-.89-1-1.4s-1-1.08-1-1.27c0-.39-1.7-2.57-3.3-4.22-.61-.624-1.1-1.29-1.1-1.474 0-.19-.5-.85-1.1-1.47-.61-.62-1.82-2.03-2.696-3.13-.876-1.1-1.73-2.06-1.9-2.14-.6-.26-2.7-2.53-2.7-2.92 0-.5-10.73-11.14-11.25-11.14-.36 0-2.15-1.73-2.43-2.34-.06-.15-1.02-.99-2.12-1.87s-2.51-2.09-3.13-2.69c-.62-.61-1.28-1.1-1.47-1.1-.18 0-.85-.5-1.47-1.1-1.65-1.6-3.83-3.3-4.22-3.3-.19 0-.76-.45-1.27-1s-1.14-1-1.39-1-.56-.25-.68-.55c-.12-.3-.83-.88-1.59-1.29-.76-.41-1.38-.88-1.38-1.05 0-.17-.28-.31-.62-.31-.34 0-.72-.27-.84-.6-.13-.33-.47-.6-.76-.6-.29 0-.775-.23-1.075-.5-.74-.68-1.92-1.42-3.01-1.89-.5-.22-.9-.53-.9-.7 0-.17-.55-.56-1.21-.85-.67-.29-1.43-.74-1.71-1-.28-.254-1.4-.91-2.49-1.46-1.1-.55-2.09-1.11-2.2-1.25-.11-.13-.61-.37-1.1-.53-.5-.15-.9-.42-.9-.59s-.81-.643-1.8-1.052c-.99-.41-1.8-.87-1.8-1.03 0-.16-.54-.4-1.2-.55-.66-.14-1.2-.41-1.2-.6s-.54-.45-1.2-.6c-.66-.14-1.2-.41-1.2-.6s-.54-.45-1.2-.6c-.66-.14-1.2-.41-1.2-.6s-.54-.45-1.2-.6c-.66-.14-1.2-.42-1.2-.61s-.63-.47-1.4-.61c-.77-.15-1.4-.43-1.4-.62 0-.2-.36-.36-.8-.36-.44 0-.8-.18-.8-.4 0-.22-.23-.4-.5-.4-.28 0-.983-.258-1.573-.56-.59-.31-1.63-.68-2.3-.83-.68-.15-1.23-.41-1.23-.59s-.72-.44-1.6-.58c-.88-.14-1.6-.42-1.6-.63 0-.2-.81-.49-1.8-.64-.99-.15-1.8-.43-1.8-.62s-.38-.36-.84-.36c-.746 0-2.61-.676-4.375-1.586-.34-.17-1.37-.44-2.3-.6-.93-.15-1.69-.43-1.69-.62 0-.18-.99-.46-2.2-.61-1.21-.15-2.2-.42-2.2-.6s-.99-.45-2.2-.6c-1.21-.15-2.2-.42-2.2-.6 0-.17-1.175-.44-2.61-.6-1.43-.15-2.7-.43-2.81-.61-.11-.18-1.46-.45-2.99-.6-1.535-.15-2.79-.43-2.79-.62s-.71-.35-1.58-.35-1.68-.16-1.8-.36c-.125-.2-1.8-.48-3.724-.626-1.93-.14-3.86-.42-4.3-.62-2.29-1.1-35.43-1.6-48.52-.76m112.4 99.39c4.95 2.35 8.2 6.51 9.44 12.06.99 4.43.94 4.795-3.63 27.89-.53 2.64-2.06 10.47-3.4 17.4-1.35 6.93-2.88 14.76-3.4 17.4-.52 2.64-1.79 9.12-2.81 14.4-1.03 5.28-2.56 13.11-3.4 17.4-.85 4.29-2.64 13.47-3.98 20.4-1.346 6.93-2.7 13.86-3.01 15.4-.32 1.54-1.58 8.02-2.81 14.4-1.23 6.38-2.67 13.76-3.2 16.4-.523 2.64-1.87 9.57-2.99 15.4-2.75 14.31-2.75 14.327-3.79 16.6-3.753 8.24-10.45 12.387-20.01 12.4-9.49.01-7.44 1.13-31-17-6.33-4.87-15.61-11.987-21.76-16.688-4.3-3.28-4.37-3.32-5.2-2.6-1.42 1.25-13.91 12.56-16.24 14.72-1.21 1.12-3.19 2.92-4.392 4.01-1.2 1.09-3 2.75-4 3.71-6.64 6.39-17.01 6.03-22.19-.77-1.74-2.27-3.78-6.65-5.21-11.16-1.83-5.78-7.63-24.53-8.41-27.2-.29-.99-1.55-5.13-2.8-9.2-1.25-4.07-2.51-8.21-2.81-9.2-1.96-6.64-2.77-9.03-3.16-9.29-.25-.16-4.23-1.54-8.85-3.08-37.91-12.59-39.78-13.28-43.63-16.13-9.52-7.03-10.7-18.28-2.73-25.99 2.92-2.82 5.15-4.14 10.95-6.52 3.7-1.51 33.55-14.12 35.06-14.81.696-.31 1.37-.57 1.507-.57.14 0 1.01-.35 1.94-.77.94-.42 9.89-4.22 19.9-8.43s18.74-7.89 19.4-8.18c.66-.29 3.45-1.465 6.2-2.61 5.7-2.365 40.59-17.05 41.8-17.6 1.74-.78 37.33-15.73 39.2-16.47 1.1-.43 2.54-1.03 3.2-1.33 8.45-3.82 35.4-14.83 38-15.53 2.68-.715 9.62-.04 12.2 1.185m-17 20.78c-3.96 1.65-7.56 3.165-8 3.36-.44.2-7.73 3.26-16.2 6.8-8.47 3.54-15.76 6.6-16.2 6.8-.44.2-9.62 4.07-20.4 8.59-10.78 4.53-19.96 8.396-20.4 8.59-.44.2-9.44 3.99-20 8.42-19.27 8.096-21.32 8.96-22.8 9.6-1.1.48-47.36 19.97-48.6 20.47-9.02 3.69-23.39 9.92-23.46 10.186-.05.19 9.53 3.55 21.3 7.47 11.77 3.92 24.073 8.035 27.343 9.145l5.95 2.02 7.94-4.92 17.73-10.98c5.39-3.33 14.39-8.91 20-12.39 5.61-3.48 14.34-8.88 19.4-12.01 5.06-3.13 14.06-8.7 20-12.39 32.54-20.19 31.882-19.83 33.842-18.85 1.13.56 1.46 2.33.71 3.75-.29.53-6.55 6.57-13.93 13.44s-14.86 13.84-16.62 15.5c-4.36 4.1-9.02 8.45-15.21 14.21-5.91 5.48-17.22 16.02-20.8 19.38-2 1.86-4.04 3.76-9.24 8.58-16.42 15.21-17.21 16.03-17.54 18.4-.15 1.1-.63 4.25-1.06 7-.44 2.75-1.24 7.88-1.8 11.4l-1.58 10c-.32 1.98-.85 5.4-1.19 7.6-.34 2.2-.7 4.51-.81 5.13-.24 1.4.08 1.296 2.27-.736.95-.88 4.7-4.3 8.33-7.6 3.63-3.29 6.8-6.17 7.04-6.39 12.08-11.1 15.51-14.18 15.81-14.19.132-.007 1.33.844 2.642 1.89 1.32 1.044 5.98 4.63 10.35 7.97 4.38 3.335 10.477 8 13.557 10.37 7.11 5.46 17.8 13.64 24.07 18.44 8.24 6.29 9.79 6.16 11.1-.88.37-1.98.84-4.41 1.05-5.4.49-2.34 1.05-5.2 4-20.4 1.34-6.93 3.13-16.11 3.98-20.4.846-4.29 2.37-12.12 3.4-17.4 1.02-5.28 2.29-11.76 2.81-14.4.52-2.64 1.78-9.12 2.79-14.4 1.01-5.28 2-10.32 2.21-11.2.2-.88 1.2-5.92 2.21-11.2 2.7-14.07 4.12-21.35 4.59-23.6.53-2.54 2.23-11.32 4.58-23.6 1.01-5.28 2.01-10.36 2.23-11.28.84-3.6 1.48-3.61-7.41.1" fill="#fff"/><path d="M279 98.666c-2.6.696-29.548 11.71-38 15.53-.66.297-2.1.896-3.2 1.33-1.874.738-37.46 15.69-39.2 16.47-1.214.546-36.096 15.233-41.8 17.6-2.75 1.143-5.54 2.318-6.2 2.61-.66.294-9.39 3.978-19.4 8.188-10.01 4.21-18.963 8.002-19.896 8.43-.932.427-1.805.776-1.94.776-.133 0-.81.258-1.504.572-1.513.688-31.362 13.3-35.06 14.813-5.808 2.38-8.036 3.706-10.955 6.526-7.975 7.71-6.795 18.96 2.724 25.99 3.85 2.85 5.72 3.54 43.63 16.14 4.62 1.54 8.6 2.92 8.84 3.08.39.25 1.2 2.65 3.15 9.29.29.99 1.55 5.13 2.8 9.2 1.25 4.07 2.51 8.21 2.8 9.2.78 2.67 6.57 21.43 8.4 27.2 1.42 4.51 3.47 8.89 5.2 11.16 5.18 6.81 15.55 7.17 22.19.78.99-.95 2.79-2.62 4-3.7 1.2-1.08 3.18-2.88 4.39-4 2.33-2.15 14.82-13.47 16.23-14.71.82-.72.9-.68 5.2 2.6 6.15 4.7 15.43 11.82 21.76 16.69 23.56 18.13 21.51 17.01 31 17 9.56-.01 16.25-4.15 20.01-12.39 1.04-2.28 1.04-2.29 3.79-16.6 1.12-5.83 2.47-12.76 2.99-15.4.53-2.64 1.97-10.02 3.2-16.4 1.23-6.38 2.49-12.86 2.8-14.4.31-1.54 1.67-8.47 3.01-15.4s3.13-16.11 3.98-20.4c.84-4.29 2.37-12.12 3.4-17.4 1.02-5.28 2.29-11.76 2.81-14.4.52-2.64 2.05-10.47 3.4-17.4 1.35-6.93 2.88-14.76 3.4-17.4 5.11-25.8 5.18-27.17 1.58-33.25-3.68-6.22-12.5-9.78-19.58-7.88m3 19.56c0 .35-.17 1.38-.39 2.3-.22.93-1.22 6-2.23 11.28-2.35 12.29-4.05 21.07-4.58 23.6-.47 2.26-1.89 9.54-4.59 23.6-1.01 5.28-2.01 10.32-2.21 11.2-.2.88-1.2 5.92-2.21 11.2-1.01 5.28-2.27 11.76-2.79 14.4-.52 2.64-1.79 9.12-2.81 14.4-1.03 5.28-2.56 13.11-3.4 17.4-.85 4.29-2.64 13.47-3.99 20.4-2.95 15.21-3.51 18.07-4 20.4-.21.99-.68 3.42-1.05 5.4-1.31 7.05-2.87 7.17-11.1.88-6.28-4.79-16.96-12.97-24.07-18.44-3.08-2.36-9.18-7.03-13.56-10.37-4.38-3.33-9.04-6.92-10.35-7.96-1.32-1.05-2.51-1.9-2.65-1.89-.31.01-3.74 3.09-15.82 14.19-.24.22-3.41 3.1-7.04 6.39-3.63 3.3-7.38 6.72-8.33 7.6-2.2 2.04-2.51 2.14-2.27.74.1-.62.47-2.93.8-5.13.34-2.2.87-5.62 1.19-7.6.32-1.98 1.03-6.48 1.58-10 .55-3.52 1.36-8.65 1.79-11.4.44-2.75.92-5.9 1.07-7 .32-2.37 1.11-3.2 17.53-18.41 5.21-4.82 7.25-6.71 9.24-8.58 3.59-3.36 14.9-13.9 20.8-19.38 6.2-5.76 10.85-10.11 15.21-14.21 1.76-1.66 9.24-8.64 16.62-15.5 7.38-6.86 13.64-12.91 13.93-13.44.76-1.41.42-3.18-.71-3.74-1.96-.97-1.3-1.34-33.85 18.86-5.94 3.69-14.94 9.26-20 12.39-5.06 3.13-13.79 8.53-19.4 12.01-5.61 3.48-14.61 9.06-20 12.39L140.6 217.2l-7.93 4.92-5.947-2.02c-3.27-1.11-15.578-5.22-27.34-9.14-11.77-3.92-21.36-7.28-21.31-7.47.08-.26 14.44-6.49 23.47-10.18 1.25-.5 47.5-19.99 48.6-20.47 1.48-.64 3.53-1.51 22.8-9.6 10.56-4.43 19.56-8.22 20-8.42.44-.2 9.62-4.06 20.4-8.59 10.78-4.52 19.96-8.39 20.4-8.59.44-.2 7.73-3.26 16.2-6.8 8.47-3.54 15.76-6.6 16.2-6.8 2.44-1.1 15.25-6.37 15.5-6.38.17 0 .3.27.3.61" fill="#000416"/></g></svg>